<svg width="53" height="50" viewBox="0 0 53 50" fill="none" xmlns="http://www.w3.org/2000/svg">
<path d="M26.7898 49.5313C12.4633 49.5899 0.683201 38.3398 1.0248 24.5996C1.3457 11.5137 12.8359 0.703132 27.1211 0.849616C41.2717 0.9961 52.9793 12.1094 52.5963 25.8691C52.234 38.8965 40.8369 49.5996 26.7898 49.5313ZM4.16133 25.2246C4.27519 37.4609 14.7924 46.8848 27.2143 46.6797C39.2428 46.4746 49.4391 37.2266 49.4391 25.1953C49.4391 12.959 38.8391 3.4961 26.3758 3.72071C14.3473 3.92579 4.24414 13.2031 4.16133 25.2246Z" fill="black"/>
<path d="M21.407 42.3242C21.407 36.5723 21.407 30.8691 21.407 25.1074C20.0613 25.1074 18.757 25.1074 17.4217 25.1074C17.4217 23.1543 17.4217 21.2598 17.4217 19.3066C17.5977 19.2969 17.7736 19.2773 17.96 19.2773C18.9227 19.2773 19.8957 19.2578 20.8584 19.2871C21.2828 19.2969 21.4277 19.1895 21.4174 18.7793C21.3967 17.2949 21.3967 15.8203 21.407 14.3359C21.4174 12.666 21.9143 11.1523 23.1771 9.94141C24.3986 8.76953 25.9617 8.13477 27.6594 8.03711C30.3922 7.89063 33.1353 7.91016 35.8785 7.86133C35.9096 7.86133 35.9406 7.89062 36.0027 7.91992C36.0027 9.88281 36.0027 11.8555 36.0027 13.877C35.806 13.8867 35.6197 13.8965 35.4437 13.8965C34.2016 13.8965 32.9594 13.8965 31.7172 13.8965C30.4646 13.9063 29.7297 14.6094 29.7297 15.7715C29.7297 16.875 29.7297 17.9883 29.74 19.0918C29.74 19.1211 29.7607 19.1504 29.7918 19.2578C31.8414 19.2578 33.9117 19.2578 36.0855 19.2578C35.8164 21.2402 35.568 23.1348 35.2988 25.0977C33.4252 25.0977 31.593 25.0977 29.709 25.0977C29.709 30.8789 29.709 36.6016 29.709 42.3438C26.9244 42.3242 24.2123 42.3242 21.407 42.3242Z" fill="black"/>
</svg>
