<svg width="30" height="23" viewBox="0 0 30 23" fill="none" xmlns="http://www.w3.org/2000/svg">
<g id="FOLDER_NOTCH_OPEN">
<path id="Vector" d="M1 21.771V2.09321C1 1.80327 1.11518 1.52521 1.32019 1.32019C1.52521 1.11518 1.80327 1 2.09321 1H9.37674C9.61312 1.00097 9.84298 1.07759 10.0327 1.21864L13.8316 4.061C14.0213 4.20205 14.2511 4.27867 14.4875 4.27964H23.9575C24.2474 4.27964 24.5255 4.39482 24.7305 4.59983C24.9355 4.80485 25.0507 5.08291 25.0507 5.37285V8.65249" stroke="#3D3C3C" stroke-width="2" stroke-linecap="round" stroke-linejoin="round"/>
<path id="Vector_2" d="M1 21.771L5.09955 11.5221C5.1795 11.3195 5.31887 11.1458 5.49934 11.0239C5.67982 10.9019 5.89296 10.8374 6.11077 10.8389H12.6974C12.9104 10.8366 13.1186 10.7751 13.2986 10.6612L16.0317 8.83008C16.2117 8.71622 16.4199 8.65471 16.6329 8.65244H27.9067C28.0796 8.65242 28.25 8.6934 28.4039 8.77201C28.5579 8.85062 28.691 8.96463 28.7924 9.10466C28.8937 9.24469 28.9604 9.40677 28.987 9.57758C29.0136 9.74839 28.9993 9.92307 28.9453 10.0873L25.0507 21.771H1Z" stroke="#3D3C3C" stroke-width="2" stroke-linecap="round" stroke-linejoin="round"/>
</g>
</svg>
