<svg width="28" height="24" viewBox="0 0 28 24" fill="none" xmlns="http://www.w3.org/2000/svg">
<g id="TitleSection">
<g id="Path">
<path id="Vector" d="M23.75 22.1158C25.5449 22.1158 27 20.7652 27 19.0992C27 17.4333 25.5449 16.0827 23.75 16.0827C21.9551 16.0827 20.5 17.4333 20.5 19.0992C20.5 20.7652 21.9551 22.1158 23.75 22.1158Z" stroke="#3D3C3C" stroke-width="2" stroke-linecap="round" stroke-linejoin="round"/>
<path id="Vector_2" d="M6.41667 1H19.4167C20.5659 1 21.6681 1.42375 22.4808 2.17803C23.2935 2.93231 23.75 3.95534 23.75 5.02205C23.75 6.08876 23.2935 7.11179 22.4808 7.86607C21.6681 8.62035 20.5659 9.0441 19.4167 9.0441H6.41667C4.98008 9.0441 3.60233 9.57379 2.5865 10.5166C1.57068 11.4595 1 12.7383 1 14.0717C1 15.4051 1.57068 16.6838 2.5865 17.6267C3.60233 18.5695 4.98008 19.0992 6.41667 19.0992H20.5" stroke="#3D3C3C" stroke-width="2" stroke-linecap="round" stroke-linejoin="round"/>
</g>
</g>
</svg>
